<svg width="44" height="44" viewBox="0 0 44 44" fill="none" xmlns="http://www.w3.org/2000/svg">
<path d="M38.5001 21.5417H5.50008C3.74008 21.5417 2.29175 20.0933 2.29175 18.3333V12.2467C2.29175 11 3.15337 9.735 4.30837 9.27666L20.8084 2.67671C21.505 2.40171 22.4951 2.40171 23.1918 2.67671L39.6918 9.27666C40.8468 9.735 41.7084 11.0183 41.7084 12.2467V18.3333C41.7084 20.0933 40.2601 21.5417 38.5001 21.5417ZM22.0001 5.20672C21.9267 5.20672 21.8535 5.20662 21.8168 5.22496L5.33503 11.825C5.22503 11.88 5.04175 12.1183 5.04175 12.2467V18.3333C5.04175 18.59 5.24341 18.7917 5.50008 18.7917H38.5001C38.7567 18.7917 38.9584 18.59 38.9584 18.3333V12.2467C38.9584 12.1183 38.7935 11.88 38.6651 11.825L22.1651 5.22496C22.1285 5.20662 22.0734 5.20672 22.0001 5.20672Z" fill="white"/>
<path d="M40.3334 41.7083H3.66675C2.91508 41.7083 2.29175 41.085 2.29175 40.3333V34.8333C2.29175 33.0733 3.74008 31.625 5.50008 31.625H38.5001C40.2601 31.625 41.7084 33.0733 41.7084 34.8333V40.3333C41.7084 41.085 41.0851 41.7083 40.3334 41.7083ZM5.04175 38.9583H38.9584V34.8333C38.9584 34.5767 38.7567 34.375 38.5001 34.375H5.50008C5.24341 34.375 5.04175 34.5767 5.04175 34.8333V38.9583Z" fill="white"/>
<path d="M7.33325 34.375C6.58159 34.375 5.95825 33.7516 5.95825 33V20.1666C5.95825 19.415 6.58159 18.7916 7.33325 18.7916C8.08492 18.7916 8.70825 19.415 8.70825 20.1666V33C8.70825 33.7516 8.08492 34.375 7.33325 34.375Z" fill="white"/>
<path d="M14.6667 34.375C13.9151 34.375 13.2917 33.7516 13.2917 33V20.1666C13.2917 19.415 13.9151 18.7916 14.6667 18.7916C15.4184 18.7916 16.0417 19.415 16.0417 20.1666V33C16.0417 33.7516 15.4184 34.375 14.6667 34.375Z" fill="white"/>
<path d="M22 34.375C21.2483 34.375 20.625 33.7516 20.625 33V20.1666C20.625 19.415 21.2483 18.7916 22 18.7916C22.7517 18.7916 23.375 19.415 23.375 20.1666V33C23.375 33.7516 22.7517 34.375 22 34.375Z" fill="white"/>
<path d="M29.3333 34.375C28.5816 34.375 27.9583 33.7516 27.9583 33V20.1666C27.9583 19.415 28.5816 18.7916 29.3333 18.7916C30.0849 18.7916 30.7083 19.415 30.7083 20.1666V33C30.7083 33.7516 30.0849 34.375 29.3333 34.375Z" fill="white"/>
<path d="M36.6667 34.375C35.9151 34.375 35.2917 33.7516 35.2917 33V20.1666C35.2917 19.415 35.9151 18.7916 36.6667 18.7916C37.4184 18.7916 38.0417 19.415 38.0417 20.1666V33C38.0417 33.7516 37.4184 34.375 36.6667 34.375Z" fill="white"/>
<path d="M42.1666 41.7084H1.83325C1.08159 41.7084 0.458252 41.085 0.458252 40.3334C0.458252 39.5817 1.08159 38.9584 1.83325 38.9584H42.1666C42.9183 38.9584 43.5416 39.5817 43.5416 40.3334C43.5416 41.085 42.9183 41.7084 42.1666 41.7084Z" fill="white"/>
<path d="M22 16.9584C19.7267 16.9584 17.875 15.1067 17.875 12.8334C17.875 10.56 19.7267 8.70837 22 8.70837C24.2733 8.70837 26.125 10.56 26.125 12.8334C26.125 15.1067 24.2733 16.9584 22 16.9584ZM22 11.4584C21.2483 11.4584 20.625 12.0817 20.625 12.8334C20.625 13.585 21.2483 14.2084 22 14.2084C22.7517 14.2084 23.375 13.585 23.375 12.8334C23.375 12.0817 22.7517 11.4584 22 11.4584Z" fill="white"/>
</svg>
