<svg width="44" height="44" viewBox="0 0 44 44" fill="none" xmlns="http://www.w3.org/2000/svg">
<path d="M29.3333 41.7083H14.6667C7.975 41.7083 4.125 37.8583 4.125 31.1666V12.8333C4.125 6.14163 7.975 2.29163 14.6667 2.29163H29.3333C36.025 2.29163 39.875 6.14163 39.875 12.8333V31.1666C39.875 37.8583 36.025 41.7083 29.3333 41.7083ZM14.6667 5.04163C9.42333 5.04163 6.875 7.58996 6.875 12.8333V31.1666C6.875 36.41 9.42333 38.9583 14.6667 38.9583H29.3333C34.5767 38.9583 37.125 36.41 37.125 31.1666V12.8333C37.125 7.58996 34.5767 5.04163 29.3333 5.04163H14.6667Z" fill="white"/>
<path d="M33.9166 16.9583H30.2499C27.4633 16.9583 25.2083 14.7033 25.2083 11.9167V8.25C25.2083 7.49833 25.8316 6.875 26.5833 6.875C27.3349 6.875 27.9583 7.49833 27.9583 8.25V11.9167C27.9583 13.1817 28.9849 14.2083 30.2499 14.2083H33.9166C34.6683 14.2083 35.2916 14.8317 35.2916 15.5833C35.2916 16.335 34.6683 16.9583 33.9166 16.9583Z" fill="white"/>
<path d="M22.0001 25.2084H14.6667C13.9151 25.2084 13.2917 24.585 13.2917 23.8334C13.2917 23.0817 13.9151 22.4584 14.6667 22.4584H22.0001C22.7517 22.4584 23.3751 23.0817 23.3751 23.8334C23.3751 24.585 22.7517 25.2084 22.0001 25.2084Z" fill="white"/>
<path d="M29.3334 32.5416H14.6667C13.9151 32.5416 13.2917 31.9183 13.2917 31.1666C13.2917 30.415 13.9151 29.7916 14.6667 29.7916H29.3334C30.0851 29.7916 30.7084 30.415 30.7084 31.1666C30.7084 31.9183 30.0851 32.5416 29.3334 32.5416Z" fill="white"/>
</svg>
