<svg width="44" height="44" viewBox="0 0 44 44" fill="none" xmlns="http://www.w3.org/2000/svg">
<path d="M12.98 29.5167C12.32 29.5167 11.66 29.3517 11.055 29.0033C9.82668 28.3067 9.09333 27.06 9.09333 25.6667V19.1217C9.09333 18.645 8.78166 17.8384 8.39666 17.38L3.77662 12.5216C2.91495 11.6783 2.29163 10.2117 2.29163 9.09332V6.25167C2.29163 4.03334 3.97825 2.27332 6.14158 2.27332H22.4583C24.585 2.27332 26.3082 3.99666 26.3082 6.12333V8.83668C26.3082 10.2667 25.4833 11.8433 24.6767 12.65L19.305 17.3983C18.8833 17.7466 18.5349 18.59 18.5349 19.2134V24.53C18.5349 25.795 17.765 27.2067 16.7567 27.8117L15.0699 28.9116C14.4099 29.315 13.695 29.5167 12.98 29.5167ZM6.14158 5.04167C5.51825 5.04167 5.04163 5.57336 5.04163 6.27002V9.11167C5.04163 9.42334 5.35332 10.2117 5.75665 10.615L10.4866 15.5833C11.1832 16.445 11.8616 17.8567 11.8616 19.1217V25.6667C11.8616 26.2167 12.21 26.4917 12.43 26.6017C12.7233 26.7667 13.1999 26.8584 13.6033 26.6017L15.3082 25.5017C15.5282 25.3733 15.7849 24.86 15.7849 24.5484V19.2316C15.7849 17.7833 16.4999 16.1883 17.5083 15.3266L22.7883 10.6517C23.1183 10.3217 23.5582 9.42335 23.5582 8.83668V6.12333C23.5582 5.51833 23.0633 5.02332 22.4583 5.02332H6.14158V5.04167Z" fill="white"/>
<path d="M27.5 41.7084H16.5C6.54496 41.7084 2.29163 37.455 2.29163 27.5V22C2.29163 21.2484 2.91496 20.625 3.66663 20.625C4.41829 20.625 5.04163 21.2484 5.04163 22V27.5C5.04163 35.9517 8.04829 38.9584 16.5 38.9584H27.5C35.9516 38.9584 38.9583 35.9517 38.9583 27.5V16.5C38.9583 11.1834 37.7116 8.10333 34.9066 6.50833C34.6133 6.34333 33.6417 5.90337 30.855 5.46337C30.1033 5.35337 29.59 4.63835 29.7183 3.88668C29.8467 3.13501 30.5616 2.62169 31.295 2.75002C33.6966 3.13502 35.3283 3.575 36.2633 4.10667C39.9667 6.215 41.7083 10.1567 41.7083 16.5V27.5C41.7083 37.455 37.455 41.7084 27.5 41.7084Z" fill="white"/>
<path d="M33 25.2084H23.8334C23.0817 25.2084 22.4584 24.585 22.4584 23.8334C22.4584 23.0817 23.0817 22.4584 23.8334 22.4584H33C33.7517 22.4584 34.375 23.0817 34.375 23.8334C34.375 24.585 33.7517 25.2084 33 25.2084Z" fill="white"/>
<path d="M33 32.5416H20.1666C19.415 32.5416 18.7916 31.9183 18.7916 31.1666C18.7916 30.415 19.415 29.7916 20.1666 29.7916H33C33.7516 29.7916 34.375 30.415 34.375 31.1666C34.375 31.9183 33.7516 32.5416 33 32.5416Z" fill="white"/>
</svg>
